<?xml version="1.0" encoding="utf-8" standalone="no"?>
<!DOCTYPE svg PUBLIC "-//W3C//DTD SVG 1.1//EN"
  "http://www.w3.org/Graphics/SVG/1.1/DTD/svg11.dtd">
<svg height="353.090625pt" version="1.1" viewBox="0 0 353.085937 353.090625" width="353.085937pt" xmlns="http://www.w3.org/2000/svg" xmlns:xlink="http://www.w3.org/1999/xlink">
 <metadata>
  <rdf:RDF xmlns:cc="http://creativecommons.org/ns#" xmlns:dc="http://purl.org/dc/elements/1.1/" xmlns:rdf="http://www.w3.org/1999/02/22-rdf-syntax-ns#">
   <cc:Work>
    <dc:type rdf:resource="http://purl.org/dc/dcmitype/StillImage"/>
    <dc:date>2022-02-02T18:16:59.924122</dc:date>
    <dc:format>image/svg+xml</dc:format>
    <dc:creator>
     <cc:Agent>
      <dc:title>Matplotlib v3.4.3, https://matplotlib.org/</dc:title>
     </cc:Agent>
    </dc:creator>
   </cc:Work>
  </rdf:RDF>
 </metadata>
 <defs>
  <style type="text/css">*{stroke-linecap:butt;stroke-linejoin:round;}</style>
 </defs>
 <g id="figure_1">
  <g id="patch_1">
   <path d="M 0 353.090625 
L 353.085937 353.090625 
L 353.085937 0 
L 0 0 
z
" style="fill:#ffffff;"/>
  </g>
  <g id="axes_1">
   <g id="patch_2">
    <path d="M 41.3625 316.6 
L 340.325 316.6 
L 340.325 7.2 
L 41.3625 7.2 
z
" style="fill:#ffffff;"/>
   </g>
   <g id="matplotlib.axis_1">
    <g id="xtick_1">
     <g id="text_1">
      <!-- 0 -->
      <g style="fill:#262626;" transform="translate(38.582031 330.757812)scale(0.1 -0.1)">
       <defs>
        <path d="M 266 2259 
Q 266 3072 433 3567 
Q 600 4063 929 4331 
Q 1259 4600 1759 4600 
Q 2128 4600 2406 4451 
Q 2684 4303 2865 4023 
Q 3047 3744 3150 3342 
Q 3253 2941 3253 2259 
Q 3253 1453 3087 958 
Q 2922 463 2592 192 
Q 2263 -78 1759 -78 
Q 1097 -78 719 397 
Q 266 969 266 2259 
z
M 844 2259 
Q 844 1131 1108 757 
Q 1372 384 1759 384 
Q 2147 384 2411 759 
Q 2675 1134 2675 2259 
Q 2675 3391 2411 3762 
Q 2147 4134 1753 4134 
Q 1366 4134 1134 3806 
Q 844 3388 844 2259 
z
" id="ArialMT-30" transform="scale(0.015625)"/>
       </defs>
       <use xlink:href="#ArialMT-30"/>
      </g>
     </g>
    </g>
    <g id="xtick_2">
     <g id="text_2">
      <!-- 2 -->
      <g style="fill:#262626;" transform="translate(98.374531 330.757812)scale(0.1 -0.1)">
       <defs>
        <path d="M 3222 541 
L 3222 0 
L 194 0 
Q 188 203 259 391 
Q 375 700 629 1000 
Q 884 1300 1366 1694 
Q 2113 2306 2375 2664 
Q 2638 3022 2638 3341 
Q 2638 3675 2398 3904 
Q 2159 4134 1775 4134 
Q 1369 4134 1125 3890 
Q 881 3647 878 3216 
L 300 3275 
Q 359 3922 746 4261 
Q 1134 4600 1788 4600 
Q 2447 4600 2831 4234 
Q 3216 3869 3216 3328 
Q 3216 3053 3103 2787 
Q 2991 2522 2730 2228 
Q 2469 1934 1863 1422 
Q 1356 997 1212 845 
Q 1069 694 975 541 
L 3222 541 
z
" id="ArialMT-32" transform="scale(0.015625)"/>
       </defs>
       <use xlink:href="#ArialMT-32"/>
      </g>
     </g>
    </g>
    <g id="xtick_3">
     <g id="text_3">
      <!-- 4 -->
      <g style="fill:#262626;" transform="translate(158.167031 330.757812)scale(0.1 -0.1)">
       <defs>
        <path d="M 2069 0 
L 2069 1097 
L 81 1097 
L 81 1613 
L 2172 4581 
L 2631 4581 
L 2631 1613 
L 3250 1613 
L 3250 1097 
L 2631 1097 
L 2631 0 
L 2069 0 
z
M 2069 1613 
L 2069 3678 
L 634 1613 
L 2069 1613 
z
" id="ArialMT-34" transform="scale(0.015625)"/>
       </defs>
       <use xlink:href="#ArialMT-34"/>
      </g>
     </g>
    </g>
    <g id="xtick_4">
     <g id="text_4">
      <!-- 6 -->
      <g style="fill:#262626;" transform="translate(217.959531 330.757812)scale(0.1 -0.1)">
       <defs>
        <path d="M 3184 3459 
L 2625 3416 
Q 2550 3747 2413 3897 
Q 2184 4138 1850 4138 
Q 1581 4138 1378 3988 
Q 1113 3794 959 3422 
Q 806 3050 800 2363 
Q 1003 2672 1297 2822 
Q 1591 2972 1913 2972 
Q 2475 2972 2870 2558 
Q 3266 2144 3266 1488 
Q 3266 1056 3080 686 
Q 2894 316 2569 119 
Q 2244 -78 1831 -78 
Q 1128 -78 684 439 
Q 241 956 241 2144 
Q 241 3472 731 4075 
Q 1159 4600 1884 4600 
Q 2425 4600 2770 4297 
Q 3116 3994 3184 3459 
z
M 888 1484 
Q 888 1194 1011 928 
Q 1134 663 1356 523 
Q 1578 384 1822 384 
Q 2178 384 2434 671 
Q 2691 959 2691 1453 
Q 2691 1928 2437 2201 
Q 2184 2475 1800 2475 
Q 1419 2475 1153 2201 
Q 888 1928 888 1484 
z
" id="ArialMT-36" transform="scale(0.015625)"/>
       </defs>
       <use xlink:href="#ArialMT-36"/>
      </g>
     </g>
    </g>
    <g id="xtick_5">
     <g id="text_5">
      <!-- 8 -->
      <g style="fill:#262626;" transform="translate(277.752031 330.757812)scale(0.1 -0.1)">
       <defs>
        <path d="M 1131 2484 
Q 781 2613 612 2850 
Q 444 3088 444 3419 
Q 444 3919 803 4259 
Q 1163 4600 1759 4600 
Q 2359 4600 2725 4251 
Q 3091 3903 3091 3403 
Q 3091 3084 2923 2848 
Q 2756 2613 2416 2484 
Q 2838 2347 3058 2040 
Q 3278 1734 3278 1309 
Q 3278 722 2862 322 
Q 2447 -78 1769 -78 
Q 1091 -78 675 323 
Q 259 725 259 1325 
Q 259 1772 486 2073 
Q 713 2375 1131 2484 
z
M 1019 3438 
Q 1019 3113 1228 2906 
Q 1438 2700 1772 2700 
Q 2097 2700 2305 2904 
Q 2513 3109 2513 3406 
Q 2513 3716 2298 3927 
Q 2084 4138 1766 4138 
Q 1444 4138 1231 3931 
Q 1019 3725 1019 3438 
z
M 838 1322 
Q 838 1081 952 856 
Q 1066 631 1291 507 
Q 1516 384 1775 384 
Q 2178 384 2440 643 
Q 2703 903 2703 1303 
Q 2703 1709 2433 1975 
Q 2163 2241 1756 2241 
Q 1359 2241 1098 1978 
Q 838 1716 838 1322 
z
" id="ArialMT-38" transform="scale(0.015625)"/>
       </defs>
       <use xlink:href="#ArialMT-38"/>
      </g>
     </g>
    </g>
    <g id="xtick_6">
     <g id="text_6">
      <!-- 10 -->
      <g style="fill:#262626;" transform="translate(334.764062 330.757812)scale(0.1 -0.1)">
       <defs>
        <path d="M 2384 0 
L 1822 0 
L 1822 3584 
Q 1619 3391 1289 3197 
Q 959 3003 697 2906 
L 697 3450 
Q 1169 3672 1522 3987 
Q 1875 4303 2022 4600 
L 2384 4600 
L 2384 0 
z
" id="ArialMT-31" transform="scale(0.015625)"/>
       </defs>
       <use xlink:href="#ArialMT-31"/>
       <use x="55.615234" xlink:href="#ArialMT-30"/>
      </g>
     </g>
    </g>
    <g id="text_7">
     <!-- compression_ratio -->
     <g style="fill:#262626;" transform="translate(149.994531 343.903125)scale(0.1 -0.1)">
      <defs>
       <path d="M 2588 1216 
L 3141 1144 
Q 3050 572 2676 248 
Q 2303 -75 1759 -75 
Q 1078 -75 664 370 
Q 250 816 250 1647 
Q 250 2184 428 2587 
Q 606 2991 970 3192 
Q 1334 3394 1763 3394 
Q 2303 3394 2647 3120 
Q 2991 2847 3088 2344 
L 2541 2259 
Q 2463 2594 2264 2762 
Q 2066 2931 1784 2931 
Q 1359 2931 1093 2626 
Q 828 2322 828 1663 
Q 828 994 1084 691 
Q 1341 388 1753 388 
Q 2084 388 2306 591 
Q 2528 794 2588 1216 
z
" id="ArialMT-63" transform="scale(0.015625)"/>
       <path d="M 213 1659 
Q 213 2581 725 3025 
Q 1153 3394 1769 3394 
Q 2453 3394 2887 2945 
Q 3322 2497 3322 1706 
Q 3322 1066 3130 698 
Q 2938 331 2570 128 
Q 2203 -75 1769 -75 
Q 1072 -75 642 372 
Q 213 819 213 1659 
z
M 791 1659 
Q 791 1022 1069 705 
Q 1347 388 1769 388 
Q 2188 388 2466 706 
Q 2744 1025 2744 1678 
Q 2744 2294 2464 2611 
Q 2184 2928 1769 2928 
Q 1347 2928 1069 2612 
Q 791 2297 791 1659 
z
" id="ArialMT-6f" transform="scale(0.015625)"/>
       <path d="M 422 0 
L 422 3319 
L 925 3319 
L 925 2853 
Q 1081 3097 1340 3245 
Q 1600 3394 1931 3394 
Q 2300 3394 2536 3241 
Q 2772 3088 2869 2813 
Q 3263 3394 3894 3394 
Q 4388 3394 4653 3120 
Q 4919 2847 4919 2278 
L 4919 0 
L 4359 0 
L 4359 2091 
Q 4359 2428 4304 2576 
Q 4250 2725 4106 2815 
Q 3963 2906 3769 2906 
Q 3419 2906 3187 2673 
Q 2956 2441 2956 1928 
L 2956 0 
L 2394 0 
L 2394 2156 
Q 2394 2531 2256 2718 
Q 2119 2906 1806 2906 
Q 1569 2906 1367 2781 
Q 1166 2656 1075 2415 
Q 984 2175 984 1722 
L 984 0 
L 422 0 
z
" id="ArialMT-6d" transform="scale(0.015625)"/>
       <path d="M 422 -1272 
L 422 3319 
L 934 3319 
L 934 2888 
Q 1116 3141 1344 3267 
Q 1572 3394 1897 3394 
Q 2322 3394 2647 3175 
Q 2972 2956 3137 2557 
Q 3303 2159 3303 1684 
Q 3303 1175 3120 767 
Q 2938 359 2589 142 
Q 2241 -75 1856 -75 
Q 1575 -75 1351 44 
Q 1128 163 984 344 
L 984 -1272 
L 422 -1272 
z
M 931 1641 
Q 931 1000 1190 694 
Q 1450 388 1819 388 
Q 2194 388 2461 705 
Q 2728 1022 2728 1688 
Q 2728 2322 2467 2637 
Q 2206 2953 1844 2953 
Q 1484 2953 1207 2617 
Q 931 2281 931 1641 
z
" id="ArialMT-70" transform="scale(0.015625)"/>
       <path d="M 416 0 
L 416 3319 
L 922 3319 
L 922 2816 
Q 1116 3169 1280 3281 
Q 1444 3394 1641 3394 
Q 1925 3394 2219 3213 
L 2025 2691 
Q 1819 2813 1613 2813 
Q 1428 2813 1281 2702 
Q 1134 2591 1072 2394 
Q 978 2094 978 1738 
L 978 0 
L 416 0 
z
" id="ArialMT-72" transform="scale(0.015625)"/>
       <path d="M 2694 1069 
L 3275 997 
Q 3138 488 2766 206 
Q 2394 -75 1816 -75 
Q 1088 -75 661 373 
Q 234 822 234 1631 
Q 234 2469 665 2931 
Q 1097 3394 1784 3394 
Q 2450 3394 2872 2941 
Q 3294 2488 3294 1666 
Q 3294 1616 3291 1516 
L 816 1516 
Q 847 969 1125 678 
Q 1403 388 1819 388 
Q 2128 388 2347 550 
Q 2566 713 2694 1069 
z
M 847 1978 
L 2700 1978 
Q 2663 2397 2488 2606 
Q 2219 2931 1791 2931 
Q 1403 2931 1139 2672 
Q 875 2413 847 1978 
z
" id="ArialMT-65" transform="scale(0.015625)"/>
       <path d="M 197 991 
L 753 1078 
Q 800 744 1014 566 
Q 1228 388 1613 388 
Q 2000 388 2187 545 
Q 2375 703 2375 916 
Q 2375 1106 2209 1216 
Q 2094 1291 1634 1406 
Q 1016 1563 777 1677 
Q 538 1791 414 1992 
Q 291 2194 291 2438 
Q 291 2659 392 2848 
Q 494 3038 669 3163 
Q 800 3259 1026 3326 
Q 1253 3394 1513 3394 
Q 1903 3394 2198 3281 
Q 2494 3169 2634 2976 
Q 2775 2784 2828 2463 
L 2278 2388 
Q 2241 2644 2061 2787 
Q 1881 2931 1553 2931 
Q 1166 2931 1000 2803 
Q 834 2675 834 2503 
Q 834 2394 903 2306 
Q 972 2216 1119 2156 
Q 1203 2125 1616 2013 
Q 2213 1853 2448 1751 
Q 2684 1650 2818 1456 
Q 2953 1263 2953 975 
Q 2953 694 2789 445 
Q 2625 197 2315 61 
Q 2006 -75 1616 -75 
Q 969 -75 630 194 
Q 291 463 197 991 
z
" id="ArialMT-73" transform="scale(0.015625)"/>
       <path d="M 425 3934 
L 425 4581 
L 988 4581 
L 988 3934 
L 425 3934 
z
M 425 0 
L 425 3319 
L 988 3319 
L 988 0 
L 425 0 
z
" id="ArialMT-69" transform="scale(0.015625)"/>
       <path d="M 422 0 
L 422 3319 
L 928 3319 
L 928 2847 
Q 1294 3394 1984 3394 
Q 2284 3394 2536 3286 
Q 2788 3178 2913 3003 
Q 3038 2828 3088 2588 
Q 3119 2431 3119 2041 
L 3119 0 
L 2556 0 
L 2556 2019 
Q 2556 2363 2490 2533 
Q 2425 2703 2258 2804 
Q 2091 2906 1866 2906 
Q 1506 2906 1245 2678 
Q 984 2450 984 1813 
L 984 0 
L 422 0 
z
" id="ArialMT-6e" transform="scale(0.015625)"/>
       <path d="M -97 -1272 
L -97 -866 
L 3631 -866 
L 3631 -1272 
L -97 -1272 
z
" id="ArialMT-5f" transform="scale(0.015625)"/>
       <path d="M 2588 409 
Q 2275 144 1986 34 
Q 1697 -75 1366 -75 
Q 819 -75 525 192 
Q 231 459 231 875 
Q 231 1119 342 1320 
Q 453 1522 633 1644 
Q 813 1766 1038 1828 
Q 1203 1872 1538 1913 
Q 2219 1994 2541 2106 
Q 2544 2222 2544 2253 
Q 2544 2597 2384 2738 
Q 2169 2928 1744 2928 
Q 1347 2928 1158 2789 
Q 969 2650 878 2297 
L 328 2372 
Q 403 2725 575 2942 
Q 747 3159 1072 3276 
Q 1397 3394 1825 3394 
Q 2250 3394 2515 3294 
Q 2781 3194 2906 3042 
Q 3031 2891 3081 2659 
Q 3109 2516 3109 2141 
L 3109 1391 
Q 3109 606 3145 398 
Q 3181 191 3288 0 
L 2700 0 
Q 2613 175 2588 409 
z
M 2541 1666 
Q 2234 1541 1622 1453 
Q 1275 1403 1131 1340 
Q 988 1278 909 1158 
Q 831 1038 831 891 
Q 831 666 1001 516 
Q 1172 366 1500 366 
Q 1825 366 2078 508 
Q 2331 650 2450 897 
Q 2541 1088 2541 1459 
L 2541 1666 
z
" id="ArialMT-61" transform="scale(0.015625)"/>
       <path d="M 1650 503 
L 1731 6 
Q 1494 -44 1306 -44 
Q 1000 -44 831 53 
Q 663 150 594 308 
Q 525 466 525 972 
L 525 2881 
L 113 2881 
L 113 3319 
L 525 3319 
L 525 4141 
L 1084 4478 
L 1084 3319 
L 1650 3319 
L 1650 2881 
L 1084 2881 
L 1084 941 
Q 1084 700 1114 631 
Q 1144 563 1211 522 
Q 1278 481 1403 481 
Q 1497 481 1650 503 
z
" id="ArialMT-74" transform="scale(0.015625)"/>
      </defs>
      <use xlink:href="#ArialMT-63"/>
      <use x="50" xlink:href="#ArialMT-6f"/>
      <use x="105.615234" xlink:href="#ArialMT-6d"/>
      <use x="188.916016" xlink:href="#ArialMT-70"/>
      <use x="244.53125" xlink:href="#ArialMT-72"/>
      <use x="277.832031" xlink:href="#ArialMT-65"/>
      <use x="333.447266" xlink:href="#ArialMT-73"/>
      <use x="383.447266" xlink:href="#ArialMT-73"/>
      <use x="433.447266" xlink:href="#ArialMT-69"/>
      <use x="455.664062" xlink:href="#ArialMT-6f"/>
      <use x="511.279297" xlink:href="#ArialMT-6e"/>
      <use x="566.894531" xlink:href="#ArialMT-5f"/>
      <use x="622.509766" xlink:href="#ArialMT-72"/>
      <use x="655.810547" xlink:href="#ArialMT-61"/>
      <use x="711.425781" xlink:href="#ArialMT-74"/>
      <use x="739.208984" xlink:href="#ArialMT-69"/>
      <use x="761.425781" xlink:href="#ArialMT-6f"/>
     </g>
    </g>
   </g>
   <g id="matplotlib.axis_2">
    <g id="ytick_1">
     <g id="text_8">
      <!-- 0.0 -->
      <g style="fill:#262626;" transform="translate(20.4625 320.178906)scale(0.1 -0.1)">
       <defs>
        <path d="M 581 0 
L 581 641 
L 1222 641 
L 1222 0 
L 581 0 
z
" id="ArialMT-2e" transform="scale(0.015625)"/>
       </defs>
       <use xlink:href="#ArialMT-30"/>
       <use x="55.615234" xlink:href="#ArialMT-2e"/>
       <use x="83.398438" xlink:href="#ArialMT-30"/>
      </g>
     </g>
    </g>
    <g id="ytick_2">
     <g id="text_9">
      <!-- 0.2 -->
      <g style="fill:#262626;" transform="translate(20.4625 266.20587)scale(0.1 -0.1)">
       <use xlink:href="#ArialMT-30"/>
       <use x="55.615234" xlink:href="#ArialMT-2e"/>
       <use x="83.398438" xlink:href="#ArialMT-32"/>
      </g>
     </g>
    </g>
    <g id="ytick_3">
     <g id="text_10">
      <!-- 0.4 -->
      <g style="fill:#262626;" transform="translate(20.4625 212.232834)scale(0.1 -0.1)">
       <use xlink:href="#ArialMT-30"/>
       <use x="55.615234" xlink:href="#ArialMT-2e"/>
       <use x="83.398438" xlink:href="#ArialMT-34"/>
      </g>
     </g>
    </g>
    <g id="ytick_4">
     <g id="text_11">
      <!-- 0.6 -->
      <g style="fill:#262626;" transform="translate(20.4625 158.259797)scale(0.1 -0.1)">
       <use xlink:href="#ArialMT-30"/>
       <use x="55.615234" xlink:href="#ArialMT-2e"/>
       <use x="83.398438" xlink:href="#ArialMT-36"/>
      </g>
     </g>
    </g>
    <g id="ytick_5">
     <g id="text_12">
      <!-- 0.8 -->
      <g style="fill:#262626;" transform="translate(20.4625 104.286761)scale(0.1 -0.1)">
       <use xlink:href="#ArialMT-30"/>
       <use x="55.615234" xlink:href="#ArialMT-2e"/>
       <use x="83.398438" xlink:href="#ArialMT-38"/>
      </g>
     </g>
    </g>
    <g id="ytick_6">
     <g id="text_13">
      <!-- 1.0 -->
      <g style="fill:#262626;" transform="translate(20.4625 50.313725)scale(0.1 -0.1)">
       <use xlink:href="#ArialMT-31"/>
       <use x="55.615234" xlink:href="#ArialMT-2e"/>
       <use x="83.398438" xlink:href="#ArialMT-30"/>
      </g>
     </g>
    </g>
    <g id="text_14">
     <!-- Density -->
     <g style="fill:#262626;" transform="translate(14.357813 178.571875)rotate(-90)scale(0.1 -0.1)">
      <defs>
       <path d="M 494 0 
L 494 4581 
L 2072 4581 
Q 2606 4581 2888 4516 
Q 3281 4425 3559 4188 
Q 3922 3881 4101 3404 
Q 4281 2928 4281 2316 
Q 4281 1794 4159 1391 
Q 4038 988 3847 723 
Q 3656 459 3429 307 
Q 3203 156 2883 78 
Q 2563 0 2147 0 
L 494 0 
z
M 1100 541 
L 2078 541 
Q 2531 541 2789 625 
Q 3047 709 3200 863 
Q 3416 1078 3536 1442 
Q 3656 1806 3656 2325 
Q 3656 3044 3420 3430 
Q 3184 3816 2847 3947 
Q 2603 4041 2063 4041 
L 1100 4041 
L 1100 541 
z
" id="ArialMT-44" transform="scale(0.015625)"/>
       <path d="M 397 -1278 
L 334 -750 
Q 519 -800 656 -800 
Q 844 -800 956 -737 
Q 1069 -675 1141 -563 
Q 1194 -478 1313 -144 
Q 1328 -97 1363 -6 
L 103 3319 
L 709 3319 
L 1400 1397 
Q 1534 1031 1641 628 
Q 1738 1016 1872 1384 
L 2581 3319 
L 3144 3319 
L 1881 -56 
Q 1678 -603 1566 -809 
Q 1416 -1088 1222 -1217 
Q 1028 -1347 759 -1347 
Q 597 -1347 397 -1278 
z
" id="ArialMT-79" transform="scale(0.015625)"/>
      </defs>
      <use xlink:href="#ArialMT-44"/>
      <use x="72.216797" xlink:href="#ArialMT-65"/>
      <use x="127.832031" xlink:href="#ArialMT-6e"/>
      <use x="183.447266" xlink:href="#ArialMT-73"/>
      <use x="233.447266" xlink:href="#ArialMT-69"/>
      <use x="255.664062" xlink:href="#ArialMT-74"/>
      <use x="283.447266" xlink:href="#ArialMT-79"/>
     </g>
    </g>
   </g>
   <g id="line2d_1">
    <path clip-path="url(#p61a04bdc15)" d="M 51.790755 316.312741 
L 53.378719 315.800097 
L 54.172701 315.323109 
L 54.966684 314.62081 
L 55.760666 313.620856 
L 56.554648 312.244597 
L 57.34863 310.414576 
L 58.142613 308.065111 
L 58.936595 305.155144 
L 59.730577 301.68169 
L 61.318542 293.287906 
L 63.700488 279.423676 
L 64.49447 275.358947 
L 65.288453 271.962589 
L 66.082435 269.415379 
L 66.876417 267.831797 
L 67.670399 267.248858 
L 68.464382 267.625805 
L 69.258364 268.85419 
L 70.052346 270.775927 
L 71.640311 275.953078 
L 74.022257 284.492634 
L 75.610222 289.399777 
L 77.198186 293.311404 
L 78.786151 296.283342 
L 80.374115 298.482579 
L 81.96208 300.072796 
L 83.550044 301.178147 
L 85.138009 301.879126 
L 86.725973 302.186186 
L 87.519955 302.15464 
L 88.313938 301.944981 
L 89.10792 301.48214 
L 89.901902 300.654545 
L 90.695884 299.307305 
L 91.489866 297.238016 
L 92.283849 294.197108 
L 93.077831 289.894769 
L 93.871813 284.016109 
L 94.665795 276.245413 
L 95.459778 266.298939 
L 96.25376 253.9639 
L 97.047742 239.139407 
L 98.635707 202.389858 
L 101.017653 135.568265 
L 102.605618 91.349847 
L 104.193582 54.896741 
L 104.987564 41.205572 
L 105.781547 31.071288 
L 106.575529 24.652609 
L 107.369511 21.92557 
L 108.163493 22.711062 
L 108.957476 26.711461 
L 109.751458 33.549633 
L 110.54544 42.804691 
L 112.133405 66.828088 
L 114.515351 110.511032 
L 116.897298 155.018708 
L 118.485262 181.625517 
L 120.073227 204.266427 
L 121.661191 222.469653 
L 123.249156 236.440157 
L 124.83712 246.880004 
L 126.425085 254.738566 
L 128.013049 260.95071 
L 129.601014 266.222046 
L 131.188978 270.920553 
L 132.776943 275.109045 
L 134.364907 278.691702 
L 135.952872 281.587143 
L 137.540836 283.833494 
L 139.128801 285.587618 
L 141.510747 287.73682 
L 145.480658 291.192486 
L 151.038534 296.211176 
L 152.626499 297.254584 
L 154.214463 297.957101 
L 155.802428 298.348792 
L 159.772339 298.973618 
L 161.360303 299.52216 
L 162.948268 300.317788 
L 166.918179 302.49673 
L 168.506143 303.053872 
L 170.094108 303.367956 
L 173.270037 303.623367 
L 175.651983 303.921787 
L 177.239948 304.323845 
L 178.827912 304.932397 
L 180.415877 305.741054 
L 185.17977 308.484171 
L 185.973752 308.748523 
L 186.767735 308.86947 
L 187.561717 308.811643 
L 188.355699 308.546347 
L 189.149681 308.057633 
L 189.943664 307.34852 
L 191.531628 305.403672 
L 193.119593 303.232629 
L 193.913575 302.308564 
L 194.707557 301.630862 
L 195.501539 301.285112 
L 196.295522 301.327375 
L 197.089504 301.77621 
L 197.883486 302.610307 
L 198.677468 303.77216 
L 200.265433 306.724846 
L 202.647379 311.269976 
L 204.235344 313.561985 
L 205.029326 314.408433 
L 205.823308 315.06637 
L 206.617291 315.558938 
L 208.205255 316.162149 
L 209.79322 316.436974 
L 209.79322 316.436974 
" style="fill:none;stroke:#1b9e77;stroke-linecap:round;stroke-width:1.5;"/>
   </g>
   <g id="line2d_2">
    <path clip-path="url(#p61a04bdc15)" d="M 49.949188 316.274562 
L 51.574169 315.772598 
L 52.386659 315.327213 
L 53.19915 314.688136 
L 54.01164 313.795429 
L 54.824131 312.581756 
L 55.636621 310.976255 
L 56.449112 308.910432 
L 57.261602 306.32593 
L 58.074092 303.183609 
L 58.886583 299.472927 
L 60.511564 290.494863 
L 64.574016 264.980801 
L 65.386506 260.85172 
L 66.198997 257.469936 
L 67.011487 254.945583 
L 67.823978 253.332665 
L 68.636468 252.627032 
L 69.448959 252.770746 
L 70.261449 253.661838 
L 71.07394 255.167701 
L 71.88643 257.140034 
L 73.511411 261.896591 
L 75.948882 269.30206 
L 77.573863 273.61436 
L 79.198844 277.234866 
L 80.823825 280.219322 
L 82.448806 282.667552 
L 84.073787 284.632274 
L 85.698767 286.061845 
L 86.511258 286.51772 
L 87.323748 286.743217 
L 88.136239 286.673066 
L 88.948729 286.220692 
L 89.76122 285.27583 
L 90.57371 283.703703 
L 91.386201 281.346733 
L 92.198691 278.029715 
L 93.011181 273.569131 
L 93.823672 267.786848 
L 94.636162 260.527793 
L 95.448653 251.680395 
L 96.261143 241.197806 
L 97.886124 215.574708 
L 99.511105 185.172826 
L 101.948576 137.640931 
L 103.573557 110.649855 
L 104.386048 99.998927 
L 105.198538 91.702518 
L 106.011029 85.962574 
L 106.823519 82.859098 
L 107.636009 82.355558 
L 108.4485 84.313228 
L 109.26099 88.511697 
L 110.073481 94.672399 
L 110.885971 102.482134 
L 112.510952 121.745562 
L 115.760914 166.521832 
L 118.198385 198.363506 
L 119.823366 216.593033 
L 121.448347 231.829926 
L 123.073328 244.036142 
L 124.698309 253.501936 
L 126.32329 260.722087 
L 127.948271 266.255325 
L 129.573251 270.598867 
L 131.198232 274.108906 
L 132.823213 276.986196 
L 134.448194 279.32324 
L 136.073175 281.182775 
L 137.698156 282.662635 
L 140.948118 285.099162 
L 143.385589 287.011861 
L 149.073022 291.731051 
L 151.510493 293.320192 
L 154.760455 295.0887 
L 158.822907 297.074438 
L 161.260379 297.972024 
L 162.88536 298.347954 
L 164.510341 298.540972 
L 171.010264 298.919728 
L 172.635245 299.30423 
L 175.072716 300.129939 
L 180.760149 302.199563 
L 182.38513 302.611306 
L 184.010111 302.804208 
L 184.822602 302.767388 
L 185.635092 302.606755 
L 186.447583 302.295131 
L 187.260073 301.809293 
L 188.072563 301.135063 
L 188.885054 300.272691 
L 190.510035 298.083399 
L 192.947506 294.581384 
L 193.759997 293.720422 
L 194.572487 293.174488 
L 195.384977 293.020368 
L 196.197468 293.307244 
L 197.009958 294.050256 
L 197.822449 295.228321 
L 198.634939 296.786548 
L 200.25992 300.697366 
L 202.697391 307.016993 
L 204.322372 310.538262 
L 205.134863 311.951636 
L 205.947353 313.121493 
L 206.759844 314.059907 
L 207.572334 314.790122 
L 208.384825 315.341725 
L 210.009805 316.035121 
L 211.634786 316.370222 
L 211.634786 316.370222 
" style="fill:none;stroke:#d95f02;stroke-linecap:round;stroke-width:1.5;"/>
   </g>
   <g id="patch_3">
    <path d="M 41.3625 316.6 
L 41.3625 7.2 
" style="fill:none;stroke:#262626;stroke-linecap:square;stroke-linejoin:miter;stroke-width:0.8;"/>
   </g>
   <g id="patch_4">
    <path d="M 41.3625 316.6 
L 340.325 316.6 
" style="fill:none;stroke:#262626;stroke-linecap:square;stroke-linejoin:miter;stroke-width:0.8;"/>
   </g>
   <g id="legend_1">
    <g id="line2d_3">
     <path d="M 265.520312 19.857812 
L 285.520312 19.857812 
" style="fill:none;stroke:#1b9e77;stroke-linecap:round;stroke-width:1.5;"/>
    </g>
    <g id="line2d_4"/>
    <g id="text_15">
     <!-- Genuine -->
     <g style="fill:#262626;" transform="translate(293.520312 23.357812)scale(0.1 -0.1)">
      <defs>
       <path d="M 2638 1797 
L 2638 2334 
L 4578 2338 
L 4578 638 
Q 4131 281 3656 101 
Q 3181 -78 2681 -78 
Q 2006 -78 1454 211 
Q 903 500 622 1047 
Q 341 1594 341 2269 
Q 341 2938 620 3517 
Q 900 4097 1425 4378 
Q 1950 4659 2634 4659 
Q 3131 4659 3532 4498 
Q 3934 4338 4162 4050 
Q 4391 3763 4509 3300 
L 3963 3150 
Q 3859 3500 3706 3700 
Q 3553 3900 3268 4020 
Q 2984 4141 2638 4141 
Q 2222 4141 1919 4014 
Q 1616 3888 1430 3681 
Q 1244 3475 1141 3228 
Q 966 2803 966 2306 
Q 966 1694 1177 1281 
Q 1388 869 1791 669 
Q 2194 469 2647 469 
Q 3041 469 3416 620 
Q 3791 772 3984 944 
L 3984 1797 
L 2638 1797 
z
" id="ArialMT-47" transform="scale(0.015625)"/>
       <path d="M 2597 0 
L 2597 488 
Q 2209 -75 1544 -75 
Q 1250 -75 995 37 
Q 741 150 617 320 
Q 494 491 444 738 
Q 409 903 409 1263 
L 409 3319 
L 972 3319 
L 972 1478 
Q 972 1038 1006 884 
Q 1059 663 1231 536 
Q 1403 409 1656 409 
Q 1909 409 2131 539 
Q 2353 669 2445 892 
Q 2538 1116 2538 1541 
L 2538 3319 
L 3100 3319 
L 3100 0 
L 2597 0 
z
" id="ArialMT-75" transform="scale(0.015625)"/>
      </defs>
      <use xlink:href="#ArialMT-47"/>
      <use x="77.783203" xlink:href="#ArialMT-65"/>
      <use x="133.398438" xlink:href="#ArialMT-6e"/>
      <use x="189.013672" xlink:href="#ArialMT-75"/>
      <use x="244.628906" xlink:href="#ArialMT-69"/>
      <use x="266.845703" xlink:href="#ArialMT-6e"/>
      <use x="322.460938" xlink:href="#ArialMT-65"/>
     </g>
    </g>
    <g id="line2d_5">
     <path d="M 265.520312 34.003125 
L 285.520312 34.003125 
" style="fill:none;stroke:#d95f02;stroke-linecap:round;stroke-width:1.5;"/>
    </g>
    <g id="line2d_6"/>
    <g id="text_16">
     <!-- Bot -->
     <g style="fill:#262626;" transform="translate(293.520312 37.503125)scale(0.1 -0.1)">
      <defs>
       <path d="M 469 0 
L 469 4581 
L 2188 4581 
Q 2713 4581 3030 4442 
Q 3347 4303 3526 4014 
Q 3706 3725 3706 3409 
Q 3706 3116 3547 2856 
Q 3388 2597 3066 2438 
Q 3481 2316 3704 2022 
Q 3928 1728 3928 1328 
Q 3928 1006 3792 729 
Q 3656 453 3456 303 
Q 3256 153 2954 76 
Q 2653 0 2216 0 
L 469 0 
z
M 1075 2656 
L 2066 2656 
Q 2469 2656 2644 2709 
Q 2875 2778 2992 2937 
Q 3109 3097 3109 3338 
Q 3109 3566 3000 3739 
Q 2891 3913 2687 3977 
Q 2484 4041 1991 4041 
L 1075 4041 
L 1075 2656 
z
M 1075 541 
L 2216 541 
Q 2509 541 2628 563 
Q 2838 600 2978 687 
Q 3119 775 3209 942 
Q 3300 1109 3300 1328 
Q 3300 1584 3169 1773 
Q 3038 1963 2805 2039 
Q 2572 2116 2134 2116 
L 1075 2116 
L 1075 541 
z
" id="ArialMT-42" transform="scale(0.015625)"/>
      </defs>
      <use xlink:href="#ArialMT-42"/>
      <use x="66.699219" xlink:href="#ArialMT-6f"/>
      <use x="122.314453" xlink:href="#ArialMT-74"/>
     </g>
    </g>
   </g>
  </g>
 </g>
 <defs>
  <clipPath id="p61a04bdc15">
   <rect height="309.4" width="298.9625" x="41.3625" y="7.2"/>
  </clipPath>
 </defs>
</svg>
